<mxfile host="app.diagrams.net" agent="Mozilla/5.0 (Windows NT 10.0; Win64; x64) AppleWebKit/537.36 (KHTML, like Gecko) Chrome/137.0.0.0 Safari/537.36" version="27.1.4">
  <diagram name="Page-1" id="ohD8MNL--VkgF56th1to">
    <mxGraphModel dx="1152" dy="700" grid="1" gridSize="10" guides="1" tooltips="1" connect="1" arrows="1" fold="1" page="1" pageScale="1" pageWidth="850" pageHeight="1100" math="0" shadow="0">
      <root>
        <mxCell id="0" />
        <mxCell id="1" parent="0" />
        <mxCell id="74MqLSq8ZaMAvQkPJM_2-1" value="" style="endArrow=none;html=1;rounded=0;entryX=0.5;entryY=0.5;entryDx=0;entryDy=0;entryPerimeter=0;exitX=0.5;exitY=0.5;exitDx=0;exitDy=0;exitPerimeter=0;" edge="1" parent="1" source="74MqLSq8ZaMAvQkPJM_2-55" target="74MqLSq8ZaMAvQkPJM_2-97">
          <mxGeometry width="50" height="50" relative="1" as="geometry">
            <mxPoint x="800" y="1115" as="sourcePoint" />
            <mxPoint x="1060" y="1115" as="targetPoint" />
          </mxGeometry>
        </mxCell>
        <mxCell id="74MqLSq8ZaMAvQkPJM_2-2" value="" style="endArrow=none;html=1;rounded=0;entryX=0.5;entryY=0.5;entryDx=0;entryDy=0;entryPerimeter=0;exitX=0.5;exitY=0.5;exitDx=0;exitDy=0;exitPerimeter=0;" edge="1" parent="1" source="74MqLSq8ZaMAvQkPJM_2-97" target="74MqLSq8ZaMAvQkPJM_2-77">
          <mxGeometry width="50" height="50" relative="1" as="geometry">
            <mxPoint x="810" y="1165" as="sourcePoint" />
            <mxPoint x="780" y="1065" as="targetPoint" />
          </mxGeometry>
        </mxCell>
        <mxCell id="74MqLSq8ZaMAvQkPJM_2-3" value="" style="endArrow=none;html=1;rounded=0;entryX=0.5;entryY=0.5;entryDx=0;entryDy=0;entryPerimeter=0;exitX=0.5;exitY=0.5;exitDx=0;exitDy=0;exitPerimeter=0;" edge="1" parent="1" source="74MqLSq8ZaMAvQkPJM_2-54" target="74MqLSq8ZaMAvQkPJM_2-96">
          <mxGeometry width="50" height="50" relative="1" as="geometry">
            <mxPoint x="760" y="535" as="sourcePoint" />
            <mxPoint x="1060" y="535" as="targetPoint" />
          </mxGeometry>
        </mxCell>
        <mxCell id="74MqLSq8ZaMAvQkPJM_2-4" value="" style="endArrow=none;html=1;rounded=0;entryX=0.5;entryY=0.5;entryDx=0;entryDy=0;entryPerimeter=0;exitX=0.5;exitY=0.5;exitDx=0;exitDy=0;exitPerimeter=0;" edge="1" parent="1" source="74MqLSq8ZaMAvQkPJM_2-96" target="74MqLSq8ZaMAvQkPJM_2-53">
          <mxGeometry width="50" height="50" relative="1" as="geometry">
            <mxPoint x="850" y="525" as="sourcePoint" />
            <mxPoint x="900" y="475" as="targetPoint" />
          </mxGeometry>
        </mxCell>
        <mxCell id="74MqLSq8ZaMAvQkPJM_2-5" value="" style="endArrow=none;html=1;rounded=0;entryX=0.5;entryY=0.5;entryDx=0;entryDy=0;entryPerimeter=0;exitX=0.5;exitY=0.5;exitDx=0;exitDy=0;exitPerimeter=0;" edge="1" parent="1" source="74MqLSq8ZaMAvQkPJM_2-77" target="74MqLSq8ZaMAvQkPJM_2-95">
          <mxGeometry width="50" height="50" relative="1" as="geometry">
            <mxPoint x="1060" y="675" as="sourcePoint" />
            <mxPoint x="1060" y="535" as="targetPoint" />
          </mxGeometry>
        </mxCell>
        <mxCell id="74MqLSq8ZaMAvQkPJM_2-6" value="" style="endArrow=none;html=1;rounded=0;entryX=0.5;entryY=0.5;entryDx=0;entryDy=0;entryPerimeter=0;exitX=0.5;exitY=0.5;exitDx=0;exitDy=0;exitPerimeter=0;" edge="1" parent="1" source="74MqLSq8ZaMAvQkPJM_2-95" target="74MqLSq8ZaMAvQkPJM_2-53">
          <mxGeometry width="50" height="50" relative="1" as="geometry">
            <mxPoint x="950" y="695" as="sourcePoint" />
            <mxPoint x="1000" y="645" as="targetPoint" />
          </mxGeometry>
        </mxCell>
        <mxCell id="74MqLSq8ZaMAvQkPJM_2-7" value="" style="endArrow=none;html=1;rounded=0;exitX=0.5;exitY=0.5;exitDx=0;exitDy=0;exitPerimeter=0;entryX=0.5;entryY=0.5;entryDx=0;entryDy=0;entryPerimeter=0;" edge="1" parent="1" source="74MqLSq8ZaMAvQkPJM_2-81" target="74MqLSq8ZaMAvQkPJM_2-77">
          <mxGeometry width="50" height="50" relative="1" as="geometry">
            <mxPoint x="870" y="1615" as="sourcePoint" />
            <mxPoint x="1040" y="1115" as="targetPoint" />
          </mxGeometry>
        </mxCell>
        <mxCell id="74MqLSq8ZaMAvQkPJM_2-8" value="" style="endArrow=none;html=1;rounded=0;exitX=0.5;exitY=0.5;exitDx=0;exitDy=0;exitPerimeter=0;entryX=0.5;entryY=0.5;entryDx=0;entryDy=0;entryPerimeter=0;" edge="1" parent="1" source="74MqLSq8ZaMAvQkPJM_2-52" target="74MqLSq8ZaMAvQkPJM_2-93">
          <mxGeometry width="50" height="50" relative="1" as="geometry">
            <mxPoint x="1060" y="535" as="sourcePoint" />
            <mxPoint x="1250" y="655" as="targetPoint" />
          </mxGeometry>
        </mxCell>
        <mxCell id="74MqLSq8ZaMAvQkPJM_2-9" value="" style="endArrow=none;html=1;rounded=0;exitX=0.5;exitY=0.5;exitDx=0;exitDy=0;exitPerimeter=0;entryX=0.5;entryY=0.5;entryDx=0;entryDy=0;entryPerimeter=0;" edge="1" parent="1" source="74MqLSq8ZaMAvQkPJM_2-53" target="74MqLSq8ZaMAvQkPJM_2-93">
          <mxGeometry width="50" height="50" relative="1" as="geometry">
            <mxPoint x="1240" y="605" as="sourcePoint" />
            <mxPoint x="1290" y="555" as="targetPoint" />
          </mxGeometry>
        </mxCell>
        <mxCell id="74MqLSq8ZaMAvQkPJM_2-10" value="" style="endArrow=none;html=1;rounded=0;exitX=0.5;exitY=0.5;exitDx=0;exitDy=0;exitPerimeter=0;entryX=0.5;entryY=0.5;entryDx=0;entryDy=0;entryPerimeter=0;" edge="1" parent="1" source="74MqLSq8ZaMAvQkPJM_2-64" target="74MqLSq8ZaMAvQkPJM_2-52">
          <mxGeometry width="50" height="50" relative="1" as="geometry">
            <mxPoint x="2800" y="550" as="sourcePoint" />
            <mxPoint x="1710" y="250" as="targetPoint" />
          </mxGeometry>
        </mxCell>
        <mxCell id="74MqLSq8ZaMAvQkPJM_2-11" value="" style="endArrow=none;html=1;rounded=0;entryX=0.5;entryY=0.5;entryDx=0;entryDy=0;entryPerimeter=0;exitX=0.5;exitY=0.5;exitDx=0;exitDy=0;exitPerimeter=0;" edge="1" parent="1" source="74MqLSq8ZaMAvQkPJM_2-91" target="74MqLSq8ZaMAvQkPJM_2-50">
          <mxGeometry width="50" height="50" relative="1" as="geometry">
            <mxPoint x="730" y="655" as="sourcePoint" />
            <mxPoint x="780" y="605" as="targetPoint" />
          </mxGeometry>
        </mxCell>
        <mxCell id="74MqLSq8ZaMAvQkPJM_2-12" value="" style="endArrow=none;html=1;rounded=0;entryX=0.5;entryY=0.5;entryDx=0;entryDy=0;entryPerimeter=0;exitX=0.5;exitY=0.5;exitDx=0;exitDy=0;exitPerimeter=0;" edge="1" parent="1" source="74MqLSq8ZaMAvQkPJM_2-91" target="74MqLSq8ZaMAvQkPJM_2-53">
          <mxGeometry width="50" height="50" relative="1" as="geometry">
            <mxPoint x="820" y="595" as="sourcePoint" />
            <mxPoint x="780" y="605" as="targetPoint" />
          </mxGeometry>
        </mxCell>
        <mxCell id="74MqLSq8ZaMAvQkPJM_2-13" value="" style="endArrow=none;html=1;rounded=0;entryX=0.5;entryY=0.5;entryDx=0;entryDy=0;entryPerimeter=0;exitX=0.5;exitY=0.5;exitDx=0;exitDy=0;exitPerimeter=0;" edge="1" parent="1" source="74MqLSq8ZaMAvQkPJM_2-55" target="74MqLSq8ZaMAvQkPJM_2-90">
          <mxGeometry width="50" height="50" relative="1" as="geometry">
            <mxPoint x="110" y="1185" as="sourcePoint" />
            <mxPoint x="160" y="1135" as="targetPoint" />
          </mxGeometry>
        </mxCell>
        <mxCell id="74MqLSq8ZaMAvQkPJM_2-14" value="" style="endArrow=none;html=1;rounded=0;entryX=0.5;entryY=0.5;entryDx=0;entryDy=0;entryPerimeter=0;exitX=0.5;exitY=0.5;exitDx=0;exitDy=0;exitPerimeter=0;" edge="1" parent="1" source="74MqLSq8ZaMAvQkPJM_2-53" target="74MqLSq8ZaMAvQkPJM_2-89">
          <mxGeometry width="50" height="50" relative="1" as="geometry">
            <mxPoint x="1840" y="585" as="sourcePoint" />
            <mxPoint x="1890" y="535" as="targetPoint" />
          </mxGeometry>
        </mxCell>
        <mxCell id="74MqLSq8ZaMAvQkPJM_2-15" value="" style="endArrow=none;html=1;rounded=0;exitX=0.5;exitY=0.5;exitDx=0;exitDy=0;exitPerimeter=0;entryX=0.5;entryY=0.5;entryDx=0;entryDy=0;entryPerimeter=0;" edge="1" parent="1" source="74MqLSq8ZaMAvQkPJM_2-88" target="74MqLSq8ZaMAvQkPJM_2-55">
          <mxGeometry width="50" height="50" relative="1" as="geometry">
            <mxPoint x="90" y="1255" as="sourcePoint" />
            <mxPoint x="140" y="1205" as="targetPoint" />
          </mxGeometry>
        </mxCell>
        <mxCell id="74MqLSq8ZaMAvQkPJM_2-16" value="" style="endArrow=none;html=1;rounded=0;entryX=0.5;entryY=0.5;entryDx=0;entryDy=0;entryPerimeter=0;exitX=0.5;exitY=0.5;exitDx=0;exitDy=0;exitPerimeter=0;" edge="1" parent="1" source="74MqLSq8ZaMAvQkPJM_2-55" target="74MqLSq8ZaMAvQkPJM_2-87">
          <mxGeometry width="50" height="50" relative="1" as="geometry">
            <mxPoint x="90" y="1255" as="sourcePoint" />
            <mxPoint x="140" y="1205" as="targetPoint" />
          </mxGeometry>
        </mxCell>
        <mxCell id="74MqLSq8ZaMAvQkPJM_2-17" value="" style="endArrow=none;html=1;rounded=0;entryX=0.5;entryY=0.5;entryDx=0;entryDy=0;entryPerimeter=0;exitX=0.5;exitY=0.5;exitDx=0;exitDy=0;exitPerimeter=0;" edge="1" parent="1" source="74MqLSq8ZaMAvQkPJM_2-55" target="74MqLSq8ZaMAvQkPJM_2-86">
          <mxGeometry width="50" height="50" relative="1" as="geometry">
            <mxPoint x="90" y="1255" as="sourcePoint" />
            <mxPoint x="140" y="1205" as="targetPoint" />
          </mxGeometry>
        </mxCell>
        <mxCell id="74MqLSq8ZaMAvQkPJM_2-18" value="" style="endArrow=none;html=1;rounded=0;entryX=0.5;entryY=0.5;entryDx=0;entryDy=0;entryPerimeter=0;exitX=0.5;exitY=0.5;exitDx=0;exitDy=0;exitPerimeter=0;" edge="1" parent="1" source="74MqLSq8ZaMAvQkPJM_2-55" target="74MqLSq8ZaMAvQkPJM_2-85">
          <mxGeometry width="50" height="50" relative="1" as="geometry">
            <mxPoint x="90" y="1255" as="sourcePoint" />
            <mxPoint x="140" y="1205" as="targetPoint" />
          </mxGeometry>
        </mxCell>
        <mxCell id="74MqLSq8ZaMAvQkPJM_2-19" value="" style="endArrow=none;html=1;rounded=0;entryX=0.5;entryY=0.5;entryDx=0;entryDy=0;entryPerimeter=0;exitX=0.5;exitY=0.5;exitDx=0;exitDy=0;exitPerimeter=0;" edge="1" parent="1" source="74MqLSq8ZaMAvQkPJM_2-55" target="74MqLSq8ZaMAvQkPJM_2-84">
          <mxGeometry width="50" height="50" relative="1" as="geometry">
            <mxPoint x="90" y="1255" as="sourcePoint" />
            <mxPoint x="140" y="1205" as="targetPoint" />
          </mxGeometry>
        </mxCell>
        <mxCell id="74MqLSq8ZaMAvQkPJM_2-20" value="" style="endArrow=none;html=1;rounded=0;exitX=0.5;exitY=0.5;exitDx=0;exitDy=0;exitPerimeter=0;entryX=0.5;entryY=0.5;entryDx=0;entryDy=0;entryPerimeter=0;" edge="1" parent="1" source="74MqLSq8ZaMAvQkPJM_2-83" target="74MqLSq8ZaMAvQkPJM_2-77">
          <mxGeometry width="50" height="50" relative="1" as="geometry">
            <mxPoint x="620" y="1295" as="sourcePoint" />
            <mxPoint x="670" y="1245" as="targetPoint" />
          </mxGeometry>
        </mxCell>
        <mxCell id="74MqLSq8ZaMAvQkPJM_2-21" value="" style="endArrow=none;html=1;rounded=0;entryX=0.5;entryY=0.5;entryDx=0;entryDy=0;entryPerimeter=0;exitX=0.5;exitY=0.5;exitDx=0;exitDy=0;exitPerimeter=0;" edge="1" parent="1" source="74MqLSq8ZaMAvQkPJM_2-82" target="74MqLSq8ZaMAvQkPJM_2-77">
          <mxGeometry width="50" height="50" relative="1" as="geometry">
            <mxPoint x="620" y="1295" as="sourcePoint" />
            <mxPoint x="670" y="1245" as="targetPoint" />
          </mxGeometry>
        </mxCell>
        <mxCell id="74MqLSq8ZaMAvQkPJM_2-22" value="" style="endArrow=none;html=1;rounded=0;exitX=0.5;exitY=0.5;exitDx=0;exitDy=0;exitPerimeter=0;entryX=0.5;entryY=0.5;entryDx=0;entryDy=0;entryPerimeter=0;" edge="1" parent="1" source="74MqLSq8ZaMAvQkPJM_2-94" target="74MqLSq8ZaMAvQkPJM_2-77">
          <mxGeometry width="50" height="50" relative="1" as="geometry">
            <mxPoint x="620" y="1295" as="sourcePoint" />
            <mxPoint x="670" y="1245" as="targetPoint" />
          </mxGeometry>
        </mxCell>
        <mxCell id="74MqLSq8ZaMAvQkPJM_2-23" value="" style="endArrow=none;html=1;rounded=0;entryX=0.5;entryY=0.5;entryDx=0;entryDy=0;entryPerimeter=0;exitX=0.5;exitY=0.5;exitDx=0;exitDy=0;exitPerimeter=0;" edge="1" parent="1" source="74MqLSq8ZaMAvQkPJM_2-80" target="74MqLSq8ZaMAvQkPJM_2-77">
          <mxGeometry width="50" height="50" relative="1" as="geometry">
            <mxPoint x="620" y="1295" as="sourcePoint" />
            <mxPoint x="670" y="1245" as="targetPoint" />
          </mxGeometry>
        </mxCell>
        <mxCell id="74MqLSq8ZaMAvQkPJM_2-24" value="" style="endArrow=none;html=1;rounded=0;entryX=0.5;entryY=0.5;entryDx=0;entryDy=0;entryPerimeter=0;exitX=0.5;exitY=0.5;exitDx=0;exitDy=0;exitPerimeter=0;" edge="1" parent="1" source="74MqLSq8ZaMAvQkPJM_2-94" target="74MqLSq8ZaMAvQkPJM_2-77">
          <mxGeometry width="50" height="50" relative="1" as="geometry">
            <mxPoint x="620" y="1295" as="sourcePoint" />
            <mxPoint x="670" y="1245" as="targetPoint" />
          </mxGeometry>
        </mxCell>
        <mxCell id="74MqLSq8ZaMAvQkPJM_2-25" value="" style="endArrow=none;html=1;rounded=0;entryX=0.5;entryY=0.5;entryDx=0;entryDy=0;entryPerimeter=0;exitX=0.5;exitY=0.5;exitDx=0;exitDy=0;exitPerimeter=0;" edge="1" parent="1" source="74MqLSq8ZaMAvQkPJM_2-79" target="74MqLSq8ZaMAvQkPJM_2-77">
          <mxGeometry width="50" height="50" relative="1" as="geometry">
            <mxPoint x="620" y="1295" as="sourcePoint" />
            <mxPoint x="670" y="1245" as="targetPoint" />
          </mxGeometry>
        </mxCell>
        <mxCell id="74MqLSq8ZaMAvQkPJM_2-26" value="" style="endArrow=none;html=1;rounded=0;entryX=0.5;entryY=0.5;entryDx=0;entryDy=0;entryPerimeter=0;exitX=0.5;exitY=0.5;exitDx=0;exitDy=0;exitPerimeter=0;" edge="1" parent="1" source="74MqLSq8ZaMAvQkPJM_2-77" target="74MqLSq8ZaMAvQkPJM_2-78">
          <mxGeometry width="50" height="50" relative="1" as="geometry">
            <mxPoint x="620" y="1295" as="sourcePoint" />
            <mxPoint x="670" y="1245" as="targetPoint" />
          </mxGeometry>
        </mxCell>
        <mxCell id="74MqLSq8ZaMAvQkPJM_2-27" value="" style="endArrow=none;html=1;rounded=0;entryX=0.5;entryY=0.5;entryDx=0;entryDy=0;entryPerimeter=0;exitX=0.5;exitY=0.5;exitDx=0;exitDy=0;exitPerimeter=0;" edge="1" parent="1" source="74MqLSq8ZaMAvQkPJM_2-76" target="74MqLSq8ZaMAvQkPJM_2-54">
          <mxGeometry width="50" height="50" relative="1" as="geometry">
            <mxPoint x="40" y="1185" as="sourcePoint" />
            <mxPoint x="-50" y="1265" as="targetPoint" />
          </mxGeometry>
        </mxCell>
        <mxCell id="74MqLSq8ZaMAvQkPJM_2-28" value="" style="endArrow=none;html=1;rounded=0;entryX=0.5;entryY=0.5;entryDx=0;entryDy=0;entryPerimeter=0;exitX=0.5;exitY=0.5;exitDx=0;exitDy=0;exitPerimeter=0;" edge="1" parent="1" source="74MqLSq8ZaMAvQkPJM_2-75" target="74MqLSq8ZaMAvQkPJM_2-54">
          <mxGeometry width="50" height="50" relative="1" as="geometry">
            <mxPoint x="40" y="1185" as="sourcePoint" />
            <mxPoint x="90" y="1135" as="targetPoint" />
          </mxGeometry>
        </mxCell>
        <mxCell id="74MqLSq8ZaMAvQkPJM_2-29" value="" style="endArrow=none;html=1;rounded=0;exitX=0.5;exitY=0.5;exitDx=0;exitDy=0;exitPerimeter=0;entryX=0.5;entryY=0.5;entryDx=0;entryDy=0;entryPerimeter=0;" edge="1" parent="1" source="74MqLSq8ZaMAvQkPJM_2-74" target="74MqLSq8ZaMAvQkPJM_2-54">
          <mxGeometry width="50" height="50" relative="1" as="geometry">
            <mxPoint x="40" y="1185" as="sourcePoint" />
            <mxPoint x="-50" y="1255" as="targetPoint" />
          </mxGeometry>
        </mxCell>
        <mxCell id="74MqLSq8ZaMAvQkPJM_2-30" value="" style="endArrow=none;html=1;rounded=0;entryX=0.5;entryY=0.5;entryDx=0;entryDy=0;entryPerimeter=0;exitX=0.5;exitY=0.5;exitDx=0;exitDy=0;exitPerimeter=0;" edge="1" parent="1" source="74MqLSq8ZaMAvQkPJM_2-54" target="74MqLSq8ZaMAvQkPJM_2-73">
          <mxGeometry width="50" height="50" relative="1" as="geometry">
            <mxPoint x="-60" y="1265" as="sourcePoint" />
            <mxPoint x="90" y="1135" as="targetPoint" />
          </mxGeometry>
        </mxCell>
        <mxCell id="74MqLSq8ZaMAvQkPJM_2-31" value="" style="endArrow=none;html=1;rounded=0;entryX=0.5;entryY=0.5;entryDx=0;entryDy=0;entryPerimeter=0;exitX=0.5;exitY=0.5;exitDx=0;exitDy=0;exitPerimeter=0;" edge="1" parent="1" source="74MqLSq8ZaMAvQkPJM_2-54" target="74MqLSq8ZaMAvQkPJM_2-72">
          <mxGeometry width="50" height="50" relative="1" as="geometry">
            <mxPoint x="40" y="1185" as="sourcePoint" />
            <mxPoint x="90" y="1135" as="targetPoint" />
          </mxGeometry>
        </mxCell>
        <mxCell id="74MqLSq8ZaMAvQkPJM_2-32" value="" style="endArrow=none;html=1;rounded=0;entryX=0.5;entryY=0.5;entryDx=0;entryDy=0;entryPerimeter=0;exitX=0.5;exitY=0.5;exitDx=0;exitDy=0;exitPerimeter=0;" edge="1" parent="1" source="74MqLSq8ZaMAvQkPJM_2-54" target="74MqLSq8ZaMAvQkPJM_2-71">
          <mxGeometry width="50" height="50" relative="1" as="geometry">
            <mxPoint x="40" y="1185" as="sourcePoint" />
            <mxPoint x="90" y="1135" as="targetPoint" />
          </mxGeometry>
        </mxCell>
        <mxCell id="74MqLSq8ZaMAvQkPJM_2-33" value="" style="endArrow=none;html=1;rounded=0;exitX=0.5;exitY=0.5;exitDx=0;exitDy=0;exitPerimeter=0;entryX=0.5;entryY=0.5;entryDx=0;entryDy=0;entryPerimeter=0;" edge="1" parent="1" source="74MqLSq8ZaMAvQkPJM_2-70" target="74MqLSq8ZaMAvQkPJM_2-53">
          <mxGeometry width="50" height="50" relative="1" as="geometry">
            <mxPoint x="1440" y="565" as="sourcePoint" />
            <mxPoint x="1490" y="515" as="targetPoint" />
          </mxGeometry>
        </mxCell>
        <mxCell id="74MqLSq8ZaMAvQkPJM_2-34" value="" style="endArrow=none;html=1;rounded=0;exitX=0.5;exitY=0.5;exitDx=0;exitDy=0;exitPerimeter=0;entryX=0.5;entryY=0.5;entryDx=0;entryDy=0;entryPerimeter=0;" edge="1" parent="1" source="74MqLSq8ZaMAvQkPJM_2-69" target="74MqLSq8ZaMAvQkPJM_2-53">
          <mxGeometry width="50" height="50" relative="1" as="geometry">
            <mxPoint x="1440" y="565" as="sourcePoint" />
            <mxPoint x="1490" y="515" as="targetPoint" />
          </mxGeometry>
        </mxCell>
        <mxCell id="74MqLSq8ZaMAvQkPJM_2-35" value="" style="endArrow=none;html=1;rounded=0;exitX=0.5;exitY=0.5;exitDx=0;exitDy=0;exitPerimeter=0;entryX=0.5;entryY=0.5;entryDx=0;entryDy=0;entryPerimeter=0;" edge="1" parent="1" source="74MqLSq8ZaMAvQkPJM_2-68" target="74MqLSq8ZaMAvQkPJM_2-53">
          <mxGeometry width="50" height="50" relative="1" as="geometry">
            <mxPoint x="1440" y="565" as="sourcePoint" />
            <mxPoint x="1490" y="515" as="targetPoint" />
          </mxGeometry>
        </mxCell>
        <mxCell id="74MqLSq8ZaMAvQkPJM_2-36" value="" style="endArrow=none;html=1;rounded=0;exitX=0.5;exitY=0.5;exitDx=0;exitDy=0;exitPerimeter=0;entryX=0.5;entryY=0.5;entryDx=0;entryDy=0;entryPerimeter=0;" edge="1" parent="1" source="74MqLSq8ZaMAvQkPJM_2-67" target="74MqLSq8ZaMAvQkPJM_2-53">
          <mxGeometry width="50" height="50" relative="1" as="geometry">
            <mxPoint x="1440" y="565" as="sourcePoint" />
            <mxPoint x="1490" y="515" as="targetPoint" />
          </mxGeometry>
        </mxCell>
        <mxCell id="74MqLSq8ZaMAvQkPJM_2-37" value="" style="endArrow=none;html=1;rounded=0;entryX=0.5;entryY=0.5;entryDx=0;entryDy=0;entryPerimeter=0;exitX=0.5;exitY=0.5;exitDx=0;exitDy=0;exitPerimeter=0;" edge="1" parent="1" source="74MqLSq8ZaMAvQkPJM_2-53" target="74MqLSq8ZaMAvQkPJM_2-66">
          <mxGeometry width="50" height="50" relative="1" as="geometry">
            <mxPoint x="1440" y="565" as="sourcePoint" />
            <mxPoint x="1490" y="515" as="targetPoint" />
          </mxGeometry>
        </mxCell>
        <mxCell id="74MqLSq8ZaMAvQkPJM_2-38" value="" style="endArrow=none;html=1;rounded=0;entryX=0.5;entryY=0.5;entryDx=0;entryDy=0;entryPerimeter=0;exitX=0.5;exitY=0.5;exitDx=0;exitDy=0;exitPerimeter=0;" edge="1" parent="1" source="74MqLSq8ZaMAvQkPJM_2-53" target="74MqLSq8ZaMAvQkPJM_2-65">
          <mxGeometry width="50" height="50" relative="1" as="geometry">
            <mxPoint x="1440" y="565" as="sourcePoint" />
            <mxPoint x="1490" y="515" as="targetPoint" />
          </mxGeometry>
        </mxCell>
        <mxCell id="74MqLSq8ZaMAvQkPJM_2-39" value="" style="endArrow=none;html=1;rounded=0;exitX=0.5;exitY=0.5;exitDx=0;exitDy=0;exitPerimeter=0;entryX=0.5;entryY=0.5;entryDx=0;entryDy=0;entryPerimeter=0;" edge="1" parent="1" source="74MqLSq8ZaMAvQkPJM_2-60" target="74MqLSq8ZaMAvQkPJM_2-52">
          <mxGeometry width="50" height="50" relative="1" as="geometry">
            <mxPoint x="2930" y="390" as="sourcePoint" />
            <mxPoint x="2980" y="340" as="targetPoint" />
          </mxGeometry>
        </mxCell>
        <mxCell id="74MqLSq8ZaMAvQkPJM_2-40" value="" style="endArrow=none;html=1;rounded=0;exitX=0.5;exitY=0.5;exitDx=0;exitDy=0;exitPerimeter=0;entryX=0.5;entryY=0.5;entryDx=0;entryDy=0;entryPerimeter=0;" edge="1" parent="1" source="74MqLSq8ZaMAvQkPJM_2-63" target="74MqLSq8ZaMAvQkPJM_2-52">
          <mxGeometry width="50" height="50" relative="1" as="geometry">
            <mxPoint x="2930" y="490" as="sourcePoint" />
            <mxPoint x="2980" y="440" as="targetPoint" />
          </mxGeometry>
        </mxCell>
        <mxCell id="74MqLSq8ZaMAvQkPJM_2-41" value="" style="endArrow=none;html=1;rounded=0;exitX=0.5;exitY=0.5;exitDx=0;exitDy=0;exitPerimeter=0;entryX=0.5;entryY=0.5;entryDx=0;entryDy=0;entryPerimeter=0;" edge="1" parent="1" source="74MqLSq8ZaMAvQkPJM_2-62" target="74MqLSq8ZaMAvQkPJM_2-52">
          <mxGeometry width="50" height="50" relative="1" as="geometry">
            <mxPoint x="2940" y="500" as="sourcePoint" />
            <mxPoint x="2990" y="450" as="targetPoint" />
          </mxGeometry>
        </mxCell>
        <mxCell id="74MqLSq8ZaMAvQkPJM_2-42" value="" style="endArrow=none;html=1;rounded=0;exitX=0.5;exitY=0.5;exitDx=0;exitDy=0;exitPerimeter=0;entryX=0.5;entryY=0.5;entryDx=0;entryDy=0;entryPerimeter=0;" edge="1" parent="1" source="74MqLSq8ZaMAvQkPJM_2-92" target="74MqLSq8ZaMAvQkPJM_2-52">
          <mxGeometry width="50" height="50" relative="1" as="geometry">
            <mxPoint x="2950" y="510" as="sourcePoint" />
            <mxPoint x="3000" y="460" as="targetPoint" />
          </mxGeometry>
        </mxCell>
        <mxCell id="74MqLSq8ZaMAvQkPJM_2-43" value="" style="endArrow=none;html=1;rounded=0;exitX=0.5;exitY=0.5;exitDx=0;exitDy=0;exitPerimeter=0;entryX=0.5;entryY=0.5;entryDx=0;entryDy=0;entryPerimeter=0;" edge="1" parent="1" source="74MqLSq8ZaMAvQkPJM_2-92" target="74MqLSq8ZaMAvQkPJM_2-52">
          <mxGeometry width="50" height="50" relative="1" as="geometry">
            <mxPoint x="2960" y="520" as="sourcePoint" />
            <mxPoint x="3010" y="470" as="targetPoint" />
          </mxGeometry>
        </mxCell>
        <mxCell id="74MqLSq8ZaMAvQkPJM_2-44" value="" style="endArrow=none;html=1;rounded=0;exitX=0.5;exitY=0.5;exitDx=0;exitDy=0;exitPerimeter=0;entryX=0.5;entryY=0.5;entryDx=0;entryDy=0;entryPerimeter=0;" edge="1" parent="1" source="74MqLSq8ZaMAvQkPJM_2-61" target="74MqLSq8ZaMAvQkPJM_2-52">
          <mxGeometry width="50" height="50" relative="1" as="geometry">
            <mxPoint x="2970" y="530" as="sourcePoint" />
            <mxPoint x="3020" y="480" as="targetPoint" />
          </mxGeometry>
        </mxCell>
        <mxCell id="74MqLSq8ZaMAvQkPJM_2-45" value="" style="endArrow=none;html=1;rounded=0;exitX=0.5;exitY=0.5;exitDx=0;exitDy=0;exitPerimeter=0;entryX=0.5;entryY=0.5;entryDx=0;entryDy=0;entryPerimeter=0;" edge="1" parent="1" source="74MqLSq8ZaMAvQkPJM_2-56" target="74MqLSq8ZaMAvQkPJM_2-50">
          <mxGeometry width="50" height="50" relative="1" as="geometry">
            <mxPoint x="180" y="825" as="sourcePoint" />
            <mxPoint x="180" y="655" as="targetPoint" />
          </mxGeometry>
        </mxCell>
        <mxCell id="74MqLSq8ZaMAvQkPJM_2-46" value="" style="endArrow=none;html=1;rounded=0;exitX=0.5;exitY=0.5;exitDx=0;exitDy=0;exitPerimeter=0;entryX=0.5;entryY=0.5;entryDx=0;entryDy=0;entryPerimeter=0;" edge="1" parent="1" source="74MqLSq8ZaMAvQkPJM_2-57" target="74MqLSq8ZaMAvQkPJM_2-50">
          <mxGeometry width="50" height="50" relative="1" as="geometry">
            <mxPoint x="320" y="825" as="sourcePoint" />
            <mxPoint x="190" y="655" as="targetPoint" />
          </mxGeometry>
        </mxCell>
        <mxCell id="74MqLSq8ZaMAvQkPJM_2-47" value="" style="endArrow=none;html=1;rounded=0;exitX=0.5;exitY=0.5;exitDx=0;exitDy=0;exitPerimeter=0;entryX=0.5;entryY=0.5;entryDx=0;entryDy=0;entryPerimeter=0;" edge="1" parent="1" source="74MqLSq8ZaMAvQkPJM_2-58" target="74MqLSq8ZaMAvQkPJM_2-50">
          <mxGeometry width="50" height="50" relative="1" as="geometry">
            <mxPoint x="460" y="835" as="sourcePoint" />
            <mxPoint x="180" y="655" as="targetPoint" />
          </mxGeometry>
        </mxCell>
        <mxCell id="74MqLSq8ZaMAvQkPJM_2-48" value="" style="endArrow=none;html=1;rounded=0;exitX=0.5;exitY=0.5;exitDx=0;exitDy=0;exitPerimeter=0;entryX=0.5;entryY=0.5;entryDx=0;entryDy=0;entryPerimeter=0;" edge="1" parent="1" source="74MqLSq8ZaMAvQkPJM_2-59" target="74MqLSq8ZaMAvQkPJM_2-50">
          <mxGeometry width="50" height="50" relative="1" as="geometry">
            <mxPoint x="590" y="825" as="sourcePoint" />
            <mxPoint x="180" y="655" as="targetPoint" />
          </mxGeometry>
        </mxCell>
        <mxCell id="74MqLSq8ZaMAvQkPJM_2-49" value="" style="endArrow=none;html=1;rounded=0;exitX=0.5;exitY=0.5;exitDx=0;exitDy=0;exitPerimeter=0;entryX=0.5;entryY=0.5;entryDx=0;entryDy=0;entryPerimeter=0;" edge="1" parent="1" source="74MqLSq8ZaMAvQkPJM_2-51" target="74MqLSq8ZaMAvQkPJM_2-50">
          <mxGeometry width="50" height="50" relative="1" as="geometry">
            <mxPoint x="410" y="905" as="sourcePoint" />
            <mxPoint x="460" y="855" as="targetPoint" />
          </mxGeometry>
        </mxCell>
        <mxCell id="74MqLSq8ZaMAvQkPJM_2-50" value="Tamu" style="rounded=0;whiteSpace=wrap;html=1;points=[[0.5,0.5,0,0,0]];fillColor=#008a00;fontColor=#ffffff;strokeColor=#005700;" vertex="1" parent="1">
          <mxGeometry x="1640" y="785" width="120" height="60" as="geometry" />
        </mxCell>
        <mxCell id="74MqLSq8ZaMAvQkPJM_2-51" value="&lt;b&gt;&lt;u&gt;ID_Tamu&lt;/u&gt;&lt;/b&gt;" style="ellipse;whiteSpace=wrap;html=1;points=[[0.5,0.5,0,0,0]];fillColor=#60a917;fontColor=#ffffff;strokeColor=#2D7600;" vertex="1" parent="1">
          <mxGeometry x="1800" y="665" width="120" height="80" as="geometry" />
        </mxCell>
        <mxCell id="74MqLSq8ZaMAvQkPJM_2-52" value="Ruang" style="rounded=0;whiteSpace=wrap;html=1;points=[[0.5,0.5,0,0,0]];fillColor=#0050ef;fontColor=#ffffff;strokeColor=#001DBC;" vertex="1" parent="1">
          <mxGeometry x="1650" y="220" width="120" height="60" as="geometry" />
        </mxCell>
        <mxCell id="74MqLSq8ZaMAvQkPJM_2-53" value="Booking" style="rounded=0;whiteSpace=wrap;html=1;points=[[0.5,0.5,0,0,0]];fillColor=#f0a30a;fontColor=#000000;strokeColor=#BD7000;" vertex="1" parent="1">
          <mxGeometry x="990" y="495" width="120" height="60" as="geometry" />
        </mxCell>
        <mxCell id="74MqLSq8ZaMAvQkPJM_2-54" value="Payment" style="rounded=0;whiteSpace=wrap;html=1;points=[[0.5,0.5,0,0,0]];fillColor=#b0e3e6;strokeColor=#0e8088;" vertex="1" parent="1">
          <mxGeometry x="370" y="495" width="120" height="60" as="geometry" />
        </mxCell>
        <mxCell id="74MqLSq8ZaMAvQkPJM_2-55" value="Layanan_Tambahan" style="rounded=0;whiteSpace=wrap;html=1;points=[[0.5,0.5,0,0,0]];fillColor=#d5e8d4;gradientColor=#97d077;strokeColor=#82b366;" vertex="1" parent="1">
          <mxGeometry x="470" y="1075" width="120" height="60" as="geometry" />
        </mxCell>
        <mxCell id="74MqLSq8ZaMAvQkPJM_2-56" value="Nama" style="ellipse;whiteSpace=wrap;html=1;points=[[0.5,0.5,0,0,0]];fillColor=#60a917;fontColor=#ffffff;strokeColor=#2D7600;" vertex="1" parent="1">
          <mxGeometry x="1880" y="765" width="120" height="80" as="geometry" />
        </mxCell>
        <mxCell id="74MqLSq8ZaMAvQkPJM_2-57" value="Email" style="ellipse;whiteSpace=wrap;html=1;points=[[0.5,0.5,0,0,0]];fillColor=#60a917;fontColor=#ffffff;strokeColor=#2D7600;" vertex="1" parent="1">
          <mxGeometry x="1980" y="865" width="120" height="80" as="geometry" />
        </mxCell>
        <mxCell id="74MqLSq8ZaMAvQkPJM_2-58" value="Nomor_HP" style="ellipse;whiteSpace=wrap;html=1;points=[[0.5,0.5,0,0,0]];fillColor=#60a917;fontColor=#ffffff;strokeColor=#2D7600;" vertex="1" parent="1">
          <mxGeometry x="1910" y="955" width="120" height="80" as="geometry" />
        </mxCell>
        <mxCell id="74MqLSq8ZaMAvQkPJM_2-59" value="Alamat" style="ellipse;whiteSpace=wrap;html=1;points=[[0.5,0.5,0,0,0]];fillColor=#60a917;fontColor=#ffffff;strokeColor=#2D7600;" vertex="1" parent="1">
          <mxGeometry x="1780" y="1035" width="120" height="80" as="geometry" />
        </mxCell>
        <mxCell id="74MqLSq8ZaMAvQkPJM_2-60" value="&lt;b&gt;&lt;u&gt;ID_Kamar&lt;/u&gt;&lt;/b&gt;" style="ellipse;whiteSpace=wrap;html=1;points=[[0.5,0.5,0,0,0]];fillColor=#1ba1e2;fontColor=#ffffff;strokeColor=#006EAF;" vertex="1" parent="1">
          <mxGeometry x="1710" y="40" width="120" height="80" as="geometry" />
        </mxCell>
        <mxCell id="74MqLSq8ZaMAvQkPJM_2-61" value="Tipe_Kamar" style="ellipse;whiteSpace=wrap;html=1;points=[[0.5,0.5,0,0,0]];fillColor=#1ba1e2;fontColor=#ffffff;strokeColor=#006EAF;" vertex="1" parent="1">
          <mxGeometry x="1850" y="90" width="120" height="80" as="geometry" />
        </mxCell>
        <mxCell id="74MqLSq8ZaMAvQkPJM_2-62" value="Harga" style="ellipse;whiteSpace=wrap;html=1;points=[[0.5,0.5,0,0,0]];fillColor=#1ba1e2;fontColor=#ffffff;strokeColor=#006EAF;" vertex="1" parent="1">
          <mxGeometry x="1930" y="170" width="120" height="80" as="geometry" />
        </mxCell>
        <mxCell id="74MqLSq8ZaMAvQkPJM_2-63" value="Status_Sedia" style="ellipse;whiteSpace=wrap;html=1;points=[[0.5,0.5,0,0,0]];fillColor=#1ba1e2;fontColor=#ffffff;strokeColor=#006EAF;" vertex="1" parent="1">
          <mxGeometry x="1930" y="260" width="120" height="80" as="geometry" />
        </mxCell>
        <mxCell id="74MqLSq8ZaMAvQkPJM_2-64" value="Gambar" style="ellipse;whiteSpace=wrap;html=1;points=[[0.5,0.5,0,0,0]];fillColor=#1ba1e2;fontColor=#ffffff;strokeColor=#006EAF;" vertex="1" parent="1">
          <mxGeometry x="1750" y="430" width="120" height="80" as="geometry" />
        </mxCell>
        <mxCell id="74MqLSq8ZaMAvQkPJM_2-65" value="&lt;b&gt;&lt;u&gt;ID_Reservasi&lt;/u&gt;&lt;/b&gt;" style="ellipse;whiteSpace=wrap;html=1;points=[[0.5,0.5,0,0,0]];fillColor=#fa6800;strokeColor=#C73500;fontColor=#000000;" vertex="1" parent="1">
          <mxGeometry x="590" y="315" width="120" height="80" as="geometry" />
        </mxCell>
        <mxCell id="74MqLSq8ZaMAvQkPJM_2-66" value="ID_Tamu" style="ellipse;whiteSpace=wrap;html=1;points=[[0.5,0.5,0,0,0]];fillColor=#fa6800;strokeColor=#C73500;fontColor=#000000;" vertex="1" parent="1">
          <mxGeometry x="700" y="235" width="120" height="80" as="geometry" />
        </mxCell>
        <mxCell id="74MqLSq8ZaMAvQkPJM_2-67" value="ID_Kamar" style="ellipse;whiteSpace=wrap;html=1;points=[[0.5,0.5,0,0,0]];fillColor=#fa6800;strokeColor=#C73500;fontColor=#000000;" vertex="1" parent="1">
          <mxGeometry x="830" y="185" width="120" height="80" as="geometry" />
        </mxCell>
        <mxCell id="74MqLSq8ZaMAvQkPJM_2-68" value="Tanggal_Checkin" style="ellipse;whiteSpace=wrap;html=1;points=[[0.5,0.5,0,0,0]];fillColor=#fa6800;strokeColor=#C73500;fontColor=#000000;" vertex="1" parent="1">
          <mxGeometry x="1120" y="185" width="120" height="80" as="geometry" />
        </mxCell>
        <mxCell id="74MqLSq8ZaMAvQkPJM_2-69" value="Tanggal_Checkout" style="ellipse;whiteSpace=wrap;html=1;points=[[0.5,0.5,0,0,0]];fillColor=#fa6800;strokeColor=#C73500;fontColor=#000000;" vertex="1" parent="1">
          <mxGeometry x="1260" y="235" width="120" height="80" as="geometry" />
        </mxCell>
        <mxCell id="74MqLSq8ZaMAvQkPJM_2-70" value="Status_Reservasi" style="ellipse;whiteSpace=wrap;html=1;points=[[0.5,0.5,0,0,0]];fillColor=#fa6800;strokeColor=#C73500;fontColor=#000000;" vertex="1" parent="1">
          <mxGeometry x="1350" y="315" width="120" height="80" as="geometry" />
        </mxCell>
        <mxCell id="74MqLSq8ZaMAvQkPJM_2-71" value="&lt;b&gt;&lt;u&gt;ID_Pembayaran&lt;/u&gt;&lt;/b&gt;" style="ellipse;whiteSpace=wrap;html=1;points=[[0.5,0.5,0,0,0]];fillColor=#b0e3e6;strokeColor=#0e8088;" vertex="1" parent="1">
          <mxGeometry x="40" y="575" width="120" height="80" as="geometry" />
        </mxCell>
        <mxCell id="74MqLSq8ZaMAvQkPJM_2-72" value="ID_Reservasi" style="ellipse;whiteSpace=wrap;html=1;points=[[0.5,0.5,0,0,0]];fillColor=#b0e3e6;strokeColor=#0e8088;" vertex="1" parent="1">
          <mxGeometry x="140" y="655" width="120" height="80" as="geometry" />
        </mxCell>
        <mxCell id="74MqLSq8ZaMAvQkPJM_2-73" value="Jumlah_Bayar" style="ellipse;whiteSpace=wrap;html=1;points=[[0.5,0.5,0,0,0]];fillColor=#b0e3e6;strokeColor=#0e8088;" vertex="1" parent="1">
          <mxGeometry x="290" y="715" width="120" height="80" as="geometry" />
        </mxCell>
        <mxCell id="74MqLSq8ZaMAvQkPJM_2-74" value="Metode_Pembayaran" style="ellipse;whiteSpace=wrap;html=1;points=[[0.5,0.5,0,0,0]];fillColor=#b0e3e6;strokeColor=#0e8088;" vertex="1" parent="1">
          <mxGeometry x="440" y="715" width="120" height="80" as="geometry" />
        </mxCell>
        <mxCell id="74MqLSq8ZaMAvQkPJM_2-75" value="Tanggal_Pembayaran" style="ellipse;whiteSpace=wrap;html=1;points=[[0.5,0.5,0,0,0]];fillColor=#b0e3e6;strokeColor=#0e8088;" vertex="1" parent="1">
          <mxGeometry x="580" y="665" width="120" height="80" as="geometry" />
        </mxCell>
        <mxCell id="74MqLSq8ZaMAvQkPJM_2-76" value="Status_Pembayaran" style="ellipse;whiteSpace=wrap;html=1;points=[[0.5,0.5,0,0,0]];fillColor=#b0e3e6;strokeColor=#0e8088;" vertex="1" parent="1">
          <mxGeometry x="670" y="585" width="120" height="80" as="geometry" />
        </mxCell>
        <mxCell id="74MqLSq8ZaMAvQkPJM_2-77" value="Pegawai" style="rounded=0;whiteSpace=wrap;html=1;points=[[0.5,0.5,0,0,0]];fillColor=#fad9d5;strokeColor=#ae4132;" vertex="1" parent="1">
          <mxGeometry x="990" y="1075" width="120" height="60" as="geometry" />
        </mxCell>
        <mxCell id="74MqLSq8ZaMAvQkPJM_2-78" value="&lt;b&gt;&lt;u&gt;ID_Pegawai&lt;/u&gt;&lt;/b&gt;" style="ellipse;whiteSpace=wrap;html=1;points=[[0.5,0.5,0,0,0]];fillColor=#fad9d5;strokeColor=#ae4132;" vertex="1" parent="1">
          <mxGeometry x="1100" y="805" width="120" height="80" as="geometry" />
        </mxCell>
        <mxCell id="74MqLSq8ZaMAvQkPJM_2-79" value="Nama" style="ellipse;whiteSpace=wrap;html=1;points=[[0.5,0.5,0,0,0]];fillColor=#fad9d5;strokeColor=#ae4132;" vertex="1" parent="1">
          <mxGeometry x="1240" y="875" width="120" height="80" as="geometry" />
        </mxCell>
        <mxCell id="74MqLSq8ZaMAvQkPJM_2-80" value="Shift" style="ellipse;whiteSpace=wrap;html=1;points=[[0.5,0.5,0,0,0]];fillColor=#fad9d5;strokeColor=#ae4132;" vertex="1" parent="1">
          <mxGeometry x="1370" y="1065" width="120" height="80" as="geometry" />
        </mxCell>
        <mxCell id="74MqLSq8ZaMAvQkPJM_2-81" value="Email" style="ellipse;whiteSpace=wrap;html=1;points=[[0.5,0.5,0,0,0]];fillColor=#fad9d5;strokeColor=#ae4132;" vertex="1" parent="1">
          <mxGeometry x="1310" y="1195" width="120" height="80" as="geometry" />
        </mxCell>
        <mxCell id="74MqLSq8ZaMAvQkPJM_2-82" value="Nomor_HP" style="ellipse;whiteSpace=wrap;html=1;points=[[0.5,0.5,0,0,0]];fillColor=#fad9d5;strokeColor=#ae4132;" vertex="1" parent="1">
          <mxGeometry x="1210" y="1295" width="120" height="80" as="geometry" />
        </mxCell>
        <mxCell id="74MqLSq8ZaMAvQkPJM_2-83" value="Alamat" style="ellipse;whiteSpace=wrap;html=1;points=[[0.5,0.5,0,0,0]];fillColor=#fad9d5;strokeColor=#ae4132;" vertex="1" parent="1">
          <mxGeometry x="1080" y="1335" width="120" height="80" as="geometry" />
        </mxCell>
        <mxCell id="74MqLSq8ZaMAvQkPJM_2-84" value="&lt;b&gt;&lt;u&gt;ID_Layanan&lt;/u&gt;&lt;/b&gt;" style="ellipse;whiteSpace=wrap;html=1;points=[[0.5,0.5,0,0,0]];fillColor=#d5e8d4;gradientColor=#97d077;strokeColor=#82b366;" vertex="1" parent="1">
          <mxGeometry x="150" y="935" width="120" height="80" as="geometry" />
        </mxCell>
        <mxCell id="74MqLSq8ZaMAvQkPJM_2-85" value="Nama_Layanan" style="ellipse;whiteSpace=wrap;html=1;points=[[0.5,0.5,0,0,0]];fillColor=#d5e8d4;gradientColor=#97d077;strokeColor=#82b366;" vertex="1" parent="1">
          <mxGeometry x="90" y="1115" width="120" height="80" as="geometry" />
        </mxCell>
        <mxCell id="74MqLSq8ZaMAvQkPJM_2-86" value="Harga" style="ellipse;whiteSpace=wrap;html=1;points=[[0.5,0.5,0,0,0]];fillColor=#d5e8d4;gradientColor=#97d077;strokeColor=#82b366;" vertex="1" parent="1">
          <mxGeometry x="130" y="1215" width="120" height="80" as="geometry" />
        </mxCell>
        <mxCell id="74MqLSq8ZaMAvQkPJM_2-87" value="Deskripsi" style="ellipse;whiteSpace=wrap;html=1;points=[[0.5,0.5,0,0,0]];fillColor=#d5e8d4;gradientColor=#97d077;strokeColor=#82b366;" vertex="1" parent="1">
          <mxGeometry x="210" y="1315" width="120" height="80" as="geometry" />
        </mxCell>
        <mxCell id="74MqLSq8ZaMAvQkPJM_2-88" value="Gambar" style="ellipse;whiteSpace=wrap;html=1;points=[[0.5,0.5,0,0,0]];fillColor=#d5e8d4;gradientColor=#97d077;strokeColor=#82b366;" vertex="1" parent="1">
          <mxGeometry x="290" y="1405" width="120" height="80" as="geometry" />
        </mxCell>
        <mxCell id="74MqLSq8ZaMAvQkPJM_2-89" value="ID_Pegawai" style="ellipse;whiteSpace=wrap;html=1;points=[[0.5,0.5,0,0,0]];fillColor=#fa6800;strokeColor=#C73500;fontColor=#000000;" vertex="1" parent="1">
          <mxGeometry x="980" y="160" width="120" height="80" as="geometry" />
        </mxCell>
        <mxCell id="74MqLSq8ZaMAvQkPJM_2-90" value="ID_Pegawai" style="ellipse;whiteSpace=wrap;html=1;points=[[0.5,0.5,0,0,0]];fillColor=#d5e8d4;gradientColor=#97d077;strokeColor=#82b366;" vertex="1" parent="1">
          <mxGeometry x="100" y="1025" width="120" height="80" as="geometry" />
        </mxCell>
        <mxCell id="74MqLSq8ZaMAvQkPJM_2-91" value="ID_Tamu" style="rhombus;whiteSpace=wrap;html=1;fillColor=#a20025;fontColor=#ffffff;strokeColor=#6F0000;points=[[0.5,0.5,0,0,0]];" vertex="1" parent="1">
          <mxGeometry x="1410" y="635" width="80" height="80" as="geometry" />
        </mxCell>
        <mxCell id="74MqLSq8ZaMAvQkPJM_2-92" value="Jumlah_Bed" style="ellipse;whiteSpace=wrap;html=1;points=[[0.5,0.5,0,0,0]];fillColor=#1ba1e2;fontColor=#ffffff;strokeColor=#006EAF;" vertex="1" parent="1">
          <mxGeometry x="1850" y="350" width="120" height="80" as="geometry" />
        </mxCell>
        <mxCell id="74MqLSq8ZaMAvQkPJM_2-93" value="ID_Kamar" style="rhombus;whiteSpace=wrap;html=1;fillColor=#a20025;fontColor=#ffffff;strokeColor=#6F0000;points=[[0.5,0.5,0,0,0]];" vertex="1" parent="1">
          <mxGeometry x="1470" y="430" width="80" height="80" as="geometry" />
        </mxCell>
        <mxCell id="74MqLSq8ZaMAvQkPJM_2-94" value="Posisi" style="ellipse;whiteSpace=wrap;html=1;points=[[0.5,0.5,0,0,0]];fillColor=#fad9d5;strokeColor=#ae4132;" vertex="1" parent="1">
          <mxGeometry x="1330" y="965" width="120" height="80" as="geometry" />
        </mxCell>
        <mxCell id="74MqLSq8ZaMAvQkPJM_2-95" value="ID_Pegawai" style="rhombus;whiteSpace=wrap;html=1;fillColor=#a20025;fontColor=#ffffff;strokeColor=#6F0000;points=[[0.5,0.5,0,0,0]];" vertex="1" parent="1">
          <mxGeometry x="1010" y="715" width="80" height="80" as="geometry" />
        </mxCell>
        <mxCell id="74MqLSq8ZaMAvQkPJM_2-96" value="ID_Reservasi" style="rhombus;whiteSpace=wrap;html=1;fillColor=#a20025;fontColor=#ffffff;strokeColor=#6F0000;points=[[0.5,0.5,0,0,0]];" vertex="1" parent="1">
          <mxGeometry x="710" y="485" width="80" height="80" as="geometry" />
        </mxCell>
        <mxCell id="74MqLSq8ZaMAvQkPJM_2-97" value="ID_Pegawai" style="rhombus;whiteSpace=wrap;html=1;fillColor=#a20025;fontColor=#ffffff;strokeColor=#6F0000;points=[[0.5,0.5,0,0,0]];" vertex="1" parent="1">
          <mxGeometry x="750" y="1065" width="80" height="80" as="geometry" />
        </mxCell>
        <mxCell id="74MqLSq8ZaMAvQkPJM_2-98" value="N" style="text;html=1;align=center;verticalAlign=middle;whiteSpace=wrap;rounded=0;" vertex="1" parent="1">
          <mxGeometry x="930" y="525" width="60" height="30" as="geometry" />
        </mxCell>
        <mxCell id="74MqLSq8ZaMAvQkPJM_2-99" value="1" style="text;html=1;align=center;verticalAlign=middle;whiteSpace=wrap;rounded=0;" vertex="1" parent="1">
          <mxGeometry x="520" y="510" width="60" height="30" as="geometry" />
        </mxCell>
      </root>
    </mxGraphModel>
  </diagram>
</mxfile>
